<svg width="754" height="727" viewBox="0 0 754 727" fill="none" xmlns="http://www.w3.org/2000/svg">
<path fill-rule="evenodd" clip-rule="evenodd" d="M410.707 55.8652C481.915 57.7392 556.088 -25.4048 615.772 13.5495C675.585 52.589 630.983 153.811 660.524 218.917C689.978 283.834 770.79 317.349 785.29 387.163C801.842 466.859 810.178 575.068 744.427 622.899C674.037 674.103 574.327 582.654 489.572 602.281C413.108 619.988 373.703 730.744 295.316 726.902C218.963 723.161 162.643 648.798 121.517 584.244C83.5241 524.607 93.4793 449.882 75.284 381.523C53.9296 301.294 -20.3537 226.692 5.33512 147.75C30.8079 69.4712 118.44 20.7402 198.599 2.57073C271.164 -13.8774 336.333 53.9079 410.707 55.8652Z" fill="#7918D9" fill-opacity="0.5"/>
</svg>
