<svg width="330" height="302" viewBox="0 0 330 302" fill="none" xmlns="http://www.w3.org/2000/svg">
<path fill-rule="evenodd" clip-rule="evenodd" d="M170.054 23.8262C199.538 24.6022 230.25 -9.82388 254.962 6.30529C279.728 22.4697 261.26 64.3808 273.492 91.3383C285.687 118.217 319.148 132.094 325.151 161.001C332.005 194 335.456 238.804 308.232 258.608C279.087 279.809 237.802 241.944 202.709 250.071C171.048 257.403 154.733 303.262 122.276 301.671C90.6621 300.122 67.3428 269.332 50.3145 242.603C34.5834 217.91 38.7054 186.97 31.1716 158.666C22.3297 125.447 -8.42752 94.5577 2.20902 61.8713C12.7561 29.4598 49.0405 9.28261 82.2306 1.75949C112.276 -5.05091 139.26 23.0158 170.054 23.8262Z" fill="#7918D9" fill-opacity="0.5"/>
</svg>
