<svg width="21" height="18" viewBox="0 0 21 18" fill="none" xmlns="http://www.w3.org/2000/svg">
<path d="M13.4217 12.062C13.4752 11.8405 13.5035 11.6094 13.5035 11.3718C13.5035 9.72097 12.1361 8.38267 10.4493 8.38267C8.76257 8.38267 7.39518 9.72097 7.39518 11.3718C7.39518 11.6132 7.42442 11.848 7.47961 12.0728C6.06297 12.3323 4.99084 13.549 4.99084 15.0108C4.99084 16.6617 6.35823 18 8.045 18C9.04019 18 9.92422 17.5341 10.4818 16.8131C11.0394 17.5341 11.9234 18 12.9186 18C14.6054 18 15.9728 16.6617 15.9728 15.0108C15.9728 13.5276 14.8691 12.2968 13.4217 12.062Z" fill="#7918D9"/>
<ellipse cx="3.38501" cy="9.24966" rx="2.19833" ry="2.81386" transform="rotate(-33.4383 3.38501 9.24966)" fill="#7918D9"/>
<ellipse cx="2.19833" cy="2.81386" rx="2.19833" ry="2.81386" transform="matrix(-0.83448 -0.551038 -0.551038 0.83448 20.9882 8.14114)" fill="#7918D9"/>
<ellipse cx="7.31711" cy="4.26738" rx="2.62853" ry="3.36452" transform="rotate(-20.132 7.31711 4.26738)" fill="#7918D9"/>
<ellipse cx="2.62853" cy="3.36452" rx="2.62853" ry="3.36452" transform="matrix(-0.938902 -0.344184 -0.344184 0.938902 17.3113 1.80939)" fill="#7918D9"/>
</svg>
