<svg width="668" height="667" viewBox="0 0 668 667" fill="none" xmlns="http://www.w3.org/2000/svg">
<path fill-rule="evenodd" clip-rule="evenodd" d="M377.211 51.2546C442.612 52.974 510.736 -23.3082 565.552 12.4313C620.487 48.2488 579.523 141.117 606.654 200.85C633.706 260.409 707.928 291.158 721.245 355.21C736.447 428.329 744.103 527.608 683.715 571.49C619.065 618.469 527.487 534.567 449.645 552.574C379.416 568.82 343.225 670.435 271.231 666.911C201.105 663.477 149.379 595.252 111.607 536.026C76.7123 481.31 85.8555 412.753 69.1442 350.035C49.5313 276.428 -18.6938 207.983 4.90001 135.556C28.2953 63.7377 108.781 19.0285 182.402 2.35857C249.049 -12.7321 308.903 49.4589 377.211 51.2546Z" fill="#7918D9" fill-opacity="0.5"/>
</svg>
